#N canvas 733 340 795 459 10;
#X obj 29 352 dac~ 1 2;
#X obj 155 -9 ctlin 1;
#X obj 90 44 nbx 5 14 -1e+37 1e+37 0 0 empty empty empty 0 -8 0 10
-262144 -1 -1 127 256;
#X obj 607 42 oscformat distance;
#X obj 473 203 netsend -u -b;
#X obj 473 123 list prepend send;
#X obj 473 146 list trim;
#X msg 513 174 connect 10.0.1.121 10000;
#X msg 35 122 loop 1;
#X obj 14 62 tgl 15 0 empty empty empty 17 7 0 10 -262144 -1 -1 1 1
;
#X obj 35 99 loadbang;
#N canvas 441 82 351 116 load_samp1 0;
#X obj 32 52 soundfiler;
#X obj 31 76 outlet;
#X obj 241 55 table samp1;
#X msg 32 27 read -resize 02a.wav samp1;
#X obj 32 2 inlet;
#X connect 0 0 1 0;
#X connect 3 0 0 0;
#X connect 4 0 3 0;
#X restore 62 398 pd load_samp1;
#X obj 145 345 bng 15 250 50 0 empty empty empty 17 7 0 10 -262144
-1 -1;
#N canvas 441 82 351 116 load_samp2 0;
#X obj 32 52 soundfiler;
#X obj 31 76 outlet;
#X obj 32 2 inlet;
#X msg 32 27 read -resize 02b.wav samp2;
#X obj 241 55 table samp2;
#X connect 0 0 1 0;
#X connect 2 0 3 0;
#X connect 3 0 0 0;
#X restore 153 398 pd load_samp2;
#X obj 33 259 xfade~;
#X obj 13 146 cyclone/play~ samp1;
#X msg 160 124 loop 1;
#X obj 139 64 tgl 15 0 empty empty empty 17 7 0 10 -262144 -1 -1 1
1;
#X obj 160 101 loadbang;
#X obj 138 148 cyclone/play~ samp2;
#X obj 190 270 line;
#X msg 191 249 \$1 10;
#X obj 106 237 line;
#X msg 106 214 \$1 1000;
#X obj 67 309 *~ 1;
#X obj 267 79 < 120;
#X obj 245 285 nbx 5 14 -1e+37 1e+37 0 0 empty empty empty 0 -8 0 10
-262144 -1 -1 73 256;
#X obj 192 195 clip 26 73;
#X obj 192 225 cyclone/scale 26 73 0 1;
#X obj 11 6 loadbang;
#X obj 605 139 loadbang;
#X obj 139 308 loadbang;
#X obj 510 42 oscformat fade;
#X obj 403 42 oscformat xfade;
#X connect 1 0 2 0;
#X connect 1 0 25 0;
#X connect 1 0 27 0;
#X connect 1 0 3 0;
#X connect 3 0 5 0;
#X connect 5 0 6 0;
#X connect 6 0 4 0;
#X connect 7 0 4 0;
#X connect 8 0 15 0;
#X connect 9 0 15 0;
#X connect 10 0 8 0;
#X connect 12 0 11 0;
#X connect 12 0 13 0;
#X connect 14 0 24 0;
#X connect 15 0 14 0;
#X connect 16 0 19 0;
#X connect 17 0 19 0;
#X connect 18 0 16 0;
#X connect 19 0 14 1;
#X connect 20 0 14 2;
#X connect 20 0 33 0;
#X connect 21 0 20 0;
#X connect 22 0 24 1;
#X connect 22 0 32 0;
#X connect 23 0 22 0;
#X connect 24 0 0 0;
#X connect 25 0 23 0;
#X connect 27 0 26 0;
#X connect 27 0 28 0;
#X connect 28 0 21 0;
#X connect 29 0 9 0;
#X connect 29 0 17 0;
#X connect 30 0 7 0;
#X connect 31 0 12 0;
#X connect 32 0 5 0;
#X connect 33 0 5 0;
